<?xml version="1.0" encoding="utf-8"?>
<!-- Generator: Adobe Illustrator 22.1.0, SVG Export Plug-In . SVG Version: 6.00 Build 0)  -->
<svg version="1.1" id="Layer_1" xmlns="http://www.w3.org/2000/svg" xmlns:xlink="http://www.w3.org/1999/xlink" x="0px" y="0px"
	 viewBox="0 0 1355 327.2" style="enable-background:new 0 0 1355 327.2;" xml:space="preserve">
<style type="text/css">
	.st0{fill:#FFFFFF;}
	.st1{fill:#FFDB08;}
	.st2{fill:#02314F;}
	.st3{fill:#031735;}
	.st4{fill:#33516B;}
	.st5{fill:#E3DDDD;}
	.st6{opacity:0.84;fill:#02314F;}
	.st7{fill:#F9F500;}
	.st8{fill:none;stroke:#021E2D;stroke-width:1.7008;stroke-miterlimit:10;}
	.st9{fill:url(#SVGID_5_);}
	.st10{fill:url(#SVGID_6_);}
	.st11{fill:url(#SVGID_7_);}
	.st12{fill:url(#SVGID_8_);}
	.st13{fill:url(#SVGID_9_);}
	.st14{fill:url(#SVGID_10_);}
	.st15{fill:url(#SVGID_11_);}
	.st16{fill:url(#SVGID_12_);}
	.st17{fill:none;stroke:#FFFFFF;stroke-width:8.5039;stroke-miterlimit:10;}
	.st18{fill:none;stroke:url(#SVGID_13_);stroke-miterlimit:10;}
	.st19{fill:none;stroke:#FFFFFF;stroke-width:1.7008;stroke-miterlimit:10;}
	.st20{fill-rule:evenodd;clip-rule:evenodd;fill:#02314F;}
	.st21{fill:#49240F;}
	.st22{fill:#C98061;}
	.st23{fill:#1F0000;}
	.st24{fill:#FFAD85;}
	.st25{fill:#866C49;}
	.st26{fill:#D62D35;}
	.st27{fill:#2D1302;}
	.st28{fill:#FFBF99;}
	.st29{fill:#482513;}
	.st30{fill:#413428;}
	.st31{fill:#B2AFAD;}
	.st32{fill:#A6E1ED;}
	.st33{fill:#00B3C5;}
	.st34{fill:#0F0F10;}
	.st35{fill:#141223;}
	.st36{fill:#353444;}
	.st37{fill:#393A58;}
	.st38{fill:none;stroke:#FFFFFF;stroke-width:2.8346;stroke-miterlimit:10;}
	.st39{fill:#00C0D2;}
	.st40{fill:#73C100;}
	.st41{fill:#CF393C;}
	.st42{fill:#FFBF31;}
	.st43{fill:#00BEC7;}
	.st44{fill:#231F20;}
	.st45{fill:#FF3D15;}
	.st46{fill:none;stroke:#000000;stroke-width:1.7008;stroke-miterlimit:10;}
	.st47{fill:#00B300;}
	.st48{fill:none;stroke:#3A3A58;stroke-width:2.8346;stroke-miterlimit:10;}
	.st49{opacity:0.5;fill:#9DC800;}
	.st50{fill:#3A3A58;}
	.st51{fill:url(#SVGID_14_);}
	.st52{fill:url(#SVGID_15_);}
	.st53{fill:url(#SVGID_16_);}
	.st54{fill:url(#SVGID_17_);}
	.st55{fill:url(#SVGID_18_);}
	.st56{fill:url(#SVGID_19_);}
	.st57{fill:url(#SVGID_20_);}
	.st58{fill:url(#SVGID_21_);}
	.st59{fill:url(#SVGID_22_);}
	.st60{fill:url(#SVGID_23_);}
	.st61{fill:url(#SVGID_24_);}
	.st62{fill:url(#SVGID_25_);}
	.st63{fill:url(#SVGID_26_);}
	.st64{fill:url(#SVGID_27_);}
	.st65{fill:url(#SVGID_28_);}
	.st66{fill:url(#SVGID_29_);}
	.st67{fill:url(#SVGID_30_);}
	.st68{fill:url(#SVGID_31_);}
	.st69{fill:url(#SVGID_32_);}
	.st70{fill:url(#SVGID_33_);}
	.st71{fill:url(#SVGID_34_);}
	.st72{fill:url(#SVGID_35_);}
	.st73{fill:url(#SVGID_36_);}
	.st74{fill:url(#SVGID_37_);}
	.st75{fill:url(#SVGID_38_);}
	.st76{fill:url(#SVGID_39_);}
	.st77{fill:url(#SVGID_40_);}
	.st78{fill:url(#SVGID_41_);}
	.st79{fill:url(#SVGID_42_);}
	.st80{fill:url(#SVGID_43_);}
	.st81{fill:url(#SVGID_44_);}
	.st82{fill:url(#SVGID_45_);}
	.st83{fill:url(#SVGID_46_);}
	.st84{fill:url(#SVGID_47_);}
	.st85{fill:url(#SVGID_48_);}
	.st86{fill:url(#SVGID_49_);}
	.st87{fill:url(#SVGID_50_);}
	.st88{fill:url(#SVGID_51_);}
	.st89{fill:url(#SVGID_52_);}
	.st90{fill:url(#SVGID_53_);}
	.st91{fill:url(#SVGID_54_);}
	.st92{fill:url(#SVGID_55_);}
	.st93{fill:url(#SVGID_56_);}
	.st94{fill:url(#SVGID_57_);}
	.st95{fill:url(#SVGID_58_);}
	.st96{fill:url(#SVGID_59_);}
	.st97{fill:url(#SVGID_60_);}
	.st98{fill:url(#SVGID_61_);}
	.st99{fill:url(#SVGID_62_);}
	.st100{fill:url(#SVGID_63_);}
	.st101{fill:url(#SVGID_64_);}
	.st102{fill:#FFFFFF;stroke:#FFFFFF;stroke-width:2.8346;stroke-miterlimit:10;}
	.st103{opacity:5.000000e-02;}
	.st104{fill:#606060;}
	.st105{fill:#09314F;}
	.st106{fill:#FFF100;}
	.st107{fill:#5BA3B4;}
	.st108{fill:#95C14E;}
	.st109{fill:#CCD943;}
	.st110{fill:#FFFFFF;stroke:#95C14E;stroke-width:4.0617;stroke-miterlimit:10;}
	.st111{fill:#FFFFFF;stroke:#CCD943;stroke-width:4.0617;stroke-miterlimit:10;}
	.st112{fill:#74788D;}
	.st113{fill:url(#SVGID_65_);}
	.st114{clip-path:url(#SVGID_67_);fill:url(#SVGID_68_);}
	.st115{clip-path:url(#SVGID_67_);}
	.st116{opacity:0.2;fill:url(#SVGID_69_);}
	.st117{opacity:0.2;fill:url(#SVGID_70_);}
	.st118{opacity:0.3;fill:url(#SVGID_71_);}
	.st119{opacity:0.3;fill:url(#SVGID_72_);}
	.st120{fill:#D7D7D7;}
	.st121{fill:#BBBDBF;}
	.st122{opacity:0.1;}
	.st123{fill:url(#SVGID_73_);}
	.st124{fill:url(#SVGID_74_);}
	.st125{fill:url(#SVGID_75_);}
	.st126{fill:url(#SVGID_76_);}
	.st127{fill:url(#SVGID_77_);}
	.st128{fill:url(#SVGID_78_);}
	.st129{fill:url(#SVGID_79_);}
	.st130{fill:url(#SVGID_80_);}
	.st131{fill:url(#SVGID_81_);}
	.st132{fill:url(#SVGID_82_);}
	.st133{fill:url(#SVGID_83_);}
	.st134{fill:url(#SVGID_84_);}
	.st135{fill:url(#SVGID_85_);}
	.st136{fill:url(#SVGID_86_);}
	.st137{fill:url(#SVGID_87_);}
	.st138{fill:url(#SVGID_88_);}
	.st139{fill:url(#SVGID_89_);}
	.st140{fill:url(#SVGID_90_);}
	.st141{fill:url(#SVGID_91_);}
	.st142{fill:url(#SVGID_92_);}
	.st143{fill:url(#SVGID_93_);}
	.st144{fill:url(#SVGID_94_);}
	.st145{fill:url(#SVGID_95_);}
	.st146{fill:url(#SVGID_96_);}
	.st147{fill:url(#SVGID_97_);}
	.st148{fill:url(#SVGID_98_);}
	.st149{fill:url(#SVGID_99_);}
	.st150{fill:url(#SVGID_100_);}
	.st151{fill:url(#SVGID_101_);}
	.st152{fill:url(#SVGID_102_);}
	.st153{fill:url(#SVGID_103_);}
	.st154{fill:url(#SVGID_104_);}
	.st155{fill:url(#SVGID_105_);}
	.st156{fill:url(#SVGID_106_);}
	.st157{fill:url(#SVGID_107_);}
	.st158{fill:url(#SVGID_108_);}
	.st159{fill:url(#SVGID_109_);}
	.st160{fill:url(#SVGID_110_);}
	.st161{fill:url(#SVGID_111_);}
	.st162{fill:url(#SVGID_112_);}
	.st163{fill:url(#SVGID_113_);}
	.st164{fill:url(#SVGID_114_);}
	.st165{fill:url(#SVGID_115_);}
	.st166{fill:url(#SVGID_116_);}
	.st167{fill:url(#SVGID_117_);}
	.st168{fill:url(#SVGID_118_);}
	.st169{fill:url(#SVGID_119_);}
	.st170{fill:url(#SVGID_120_);}
	.st171{fill:url(#SVGID_121_);}
	.st172{fill:url(#SVGID_122_);}
	.st173{fill:url(#SVGID_123_);}
	.st174{fill:url(#SVGID_124_);}
	.st175{fill:url(#SVGID_125_);}
	.st176{fill:url(#SVGID_126_);}
	.st177{fill:url(#SVGID_127_);}
	.st178{fill:url(#SVGID_128_);}
	.st179{fill:url(#SVGID_129_);}
	.st180{fill:url(#SVGID_130_);}
	.st181{fill:url(#SVGID_131_);}
	.st182{fill:url(#SVGID_132_);}
	.st183{fill:url(#SVGID_133_);}
	.st184{fill:url(#SVGID_134_);}
	.st185{fill:url(#SVGID_135_);}
	.st186{fill:url(#SVGID_136_);}
	.st187{fill:url(#SVGID_137_);}
	.st188{fill:url(#SVGID_138_);}
	.st189{fill:url(#SVGID_139_);}
	.st190{fill:url(#SVGID_140_);}
	.st191{fill:url(#SVGID_141_);}
	.st192{fill:url(#SVGID_142_);}
	.st193{fill:url(#SVGID_143_);}
	.st194{fill:url(#SVGID_144_);}
	.st195{fill:url(#SVGID_145_);}
	.st196{fill:url(#SVGID_146_);}
	.st197{fill:url(#SVGID_147_);}
	.st198{fill:url(#SVGID_148_);}
	.st199{fill:url(#SVGID_149_);}
	.st200{fill:url(#SVGID_150_);}
	.st201{fill:url(#SVGID_151_);}
	.st202{fill:url(#SVGID_152_);}
	.st203{fill:url(#SVGID_153_);}
	.st204{fill:url(#SVGID_154_);}
	.st205{fill:url(#SVGID_155_);}
	.st206{fill:url(#SVGID_156_);}
	.st207{fill:url(#SVGID_157_);}
	.st208{fill:url(#SVGID_158_);}
	.st209{fill:url(#SVGID_159_);}
	.st210{fill:url(#SVGID_160_);}
	.st211{fill:url(#SVGID_161_);}
	.st212{fill:url(#SVGID_162_);}
	.st213{fill:url(#SVGID_163_);}
	.st214{fill:url(#SVGID_164_);}
	.st215{fill:url(#SVGID_165_);}
	.st216{fill:url(#SVGID_166_);}
	.st217{fill:url(#SVGID_167_);}
	.st218{fill:url(#SVGID_168_);}
	.st219{fill:url(#SVGID_169_);}
	.st220{fill:url(#SVGID_170_);}
	.st221{fill:url(#SVGID_171_);}
	.st222{fill:url(#SVGID_172_);}
	.st223{fill:url(#SVGID_173_);}
	.st224{fill:url(#SVGID_174_);}
	.st225{fill:url(#SVGID_175_);}
	.st226{fill:url(#SVGID_176_);}
	.st227{fill:url(#SVGID_177_);}
	.st228{fill:none;stroke:#9E9D9D;stroke-width:1.1484;stroke-linejoin:round;stroke-miterlimit:10;}
	.st229{fill:none;stroke:#9E9D9D;stroke-width:1.1484;stroke-miterlimit:10;}
	.st230{fill:none;stroke:#9E9D9D;stroke-width:0.5;stroke-miterlimit:10;}
	.st231{fill-rule:evenodd;clip-rule:evenodd;fill:#0C5371;}
	.st232{fill:none;}
	.st233{fill:#0C5371;}
	.st234{fill:#1E334F;}
	.st235{opacity:0.1;fill:#6C63FF;enable-background:new    ;}
	.st236{fill:#6C63FF;}
	.st237{fill:#464353;}
	.st238{fill:#FFFFFF;stroke:#FFFFFF;stroke-miterlimit:10;}
	.st239{opacity:0.5;fill:#6C63FF;enable-background:new    ;}
	.st240{fill:#504F60;}
	.st241{opacity:0.1;enable-background:new    ;}
	.st242{fill:#3F3D56;}
	.st243{fill:#FFFFFF;stroke:#33313F;stroke-width:3;stroke-miterlimit:10;}
	.st244{fill:none;stroke:#33313F;stroke-width:2;stroke-linecap:round;stroke-miterlimit:10;}
	.st245{fill:#FFFFFF;stroke:#33313F;stroke-width:2;stroke-linecap:round;stroke-miterlimit:10;}
	.st246{fill:none;stroke:#33313F;stroke-width:3;stroke-miterlimit:10;}
	.st247{fill:#FFFFFF;stroke:#33313F;stroke-width:3;stroke-linecap:round;stroke-miterlimit:10;}
	.st248{fill:#33313F;}
	.st249{fill:#65617D;}
	.st250{fill:url(#SVGID_188_);}
	.st251{fill:#DB8B8B;}
	.st252{fill:#2E3037;}
	.st253{fill:#35323E;}
	.st254{opacity:0.2;enable-background:new    ;}
	.st255{fill:#D4DFEC;}
	.st256{fill:#FBBEBE;}
	.st257{fill:url(#SVGID_189_);}
	.st258{fill:#C97373;}
	.st259{fill:none;stroke:#6C63FF;stroke-width:2;stroke-miterlimit:10;}
	.st260{opacity:0.3;fill:#6C63FF;enable-background:new    ;}
	.st261{fill:none;stroke:#3F3D56;stroke-miterlimit:10;}
	.st262{fill:#47465A;}
	.st263{fill:#7A799C;}
	.st264{fill:#9493B6;}
	.st265{fill:#333232;}
	.st266{fill:#C67D7D;}
	.st267{fill:#D18686;}
	.st268{fill:#DDA4A4;}
	.st269{fill:#2F2E41;}
	.st270{fill:#F0F0F0;}
	.st271{fill:#E6E6E6;}
	.st272{fill:#F2F2F2;}
	.st273{fill:#D0CDE1;}
	.st274{fill:#575A89;}
	.st275{fill:#FDDB37;}
	.st276{fill:#22807E;}
	.st277{fill:none;stroke:#22807E;stroke-width:0.737;stroke-miterlimit:10;}
</style>
<g>
	<path class="st2" d="M382,56.2C301.9,56,221.7,56,141.5,56.3c-37.5,0.1-66.1,29.3-66.3,66.9c-0.1,28.5,0,57.1,0.1,85.6
		c0.1,39,28.4,67.6,67.6,67.7c56.8,0.2,113.6,0.1,170.4,0c15.8,0,26.5-9.7,26.6-23.7c0.1-14-10.7-24.1-26.3-24.2
		c-18.2-0.2-36.5-0.1-54.7-0.1c-38.3,0-76.6,0-114.9,0c-11.7,0-20.1-6.8-20.9-17.2c-0.4-5.8-0.1-11.7-0.1-18.6h71.2
		c62.2,0,124.4,0.1,186.6,0c37.4-0.1,68.4-29.7,68.5-65C449.5,85.8,421.9,56.3,382,56.2z M395.2,139.1c-3.6,2.9-8.6,5.4-13,5.4
		c-85.5,0.3-171.1,0.2-256.6,0.2c-0.5,0-0.9-0.3-2.4-0.8c0-6.4,0-12.5,0-18.6c0.1-13.7,7.2-21.1,20.9-21.1
		c33.7-0.1,67.3-0.1,101-0.1c45.2,0,90.4,0,135.6,0c9.6,0,17,4.4,19.4,12.3C402.5,124.6,402.6,133.2,395.2,139.1z"/>
	<path class="st2" d="M403.7,275.9c5.6,0,11.3,0.2,16.9,0c13.2-0.5,22.9-10.4,23.4-23.7c0.4-13.2-8.7-24.5-21.6-25.3
		c-12.3-0.7-24.6-0.8-36.9,0c-13,0.8-21.9,12.1-21.5,25.5c0.4,12.8,10.1,22.9,22.8,23.5C392.4,276.1,398.1,275.9,403.7,275.9z"/>
</g>
<g>
	<path class="st2" d="M558.5,128.9v9.8c0,3.8,2.4,7.1,7.3,9.9c4.9,2.7,12.6,4.1,23.4,4.1h22c2.9,0,4.8,0.8,5.7,2.4
		c0.8,1.6,1.2,4,1.2,7.2c0,3.2-0.4,5.6-1.2,7.3c-0.8,1.7-2.7,2.5-5.7,2.5h-22.8c-36.1,0-54.2-11.1-54.2-33.3V97.1
		c0-22.2,18.1-33.3,54.2-33.3h44.2c19.2,0,33,2.7,41.5,8.2c8.5,5.5,12.7,13.9,12.7,25.1v22c0,3.7-0.7,6.3-2.1,7.7
		c-1.4,1.4-4.5,2.1-9.4,2.1H558.5z M558.5,109.9h104V97.1c0-4.5-2.4-7.9-7.2-10.3c-4.8-2.4-12.6-3.6-23.5-3.6h-42.7
		c-10.7,0-18.5,1.3-23.4,4c-4.9,2.7-7.3,6-7.3,10V109.9z"/>
	<path class="st2" d="M725.1,195.2c0,3.7-1,6.1-3.1,7.3c-2,1.1-5.1,1.7-9.2,1.7c-4.1,0-7.1-0.6-9.1-1.7c-2-1.1-3-3.6-3-7.3V97.1
		c0-22.2,18.1-33.3,54.2-33.3h46c36.1,0,54.2,11.1,54.2,33.3v41.6c0,22.2-18.1,33.3-54.2,33.3h-75.9V195.2z M800.2,152.6
		c10.7,0,18.5-1.3,23.4-4c4.9-2.7,7.3-6,7.3-10V97.1c0-3.8-2.4-7.1-7.3-9.9c-4.9-2.7-12.6-4.1-23.4-4.1h-44.4
		c-10.7,0-18.5,1.4-23.4,4.1c-4.9,2.7-7.3,6-7.3,9.9v55.5H800.2z"/>
	<path class="st2" d="M868.4,44.2c0-4.1,1.2-7.1,3.5-9c2.4-1.9,6.2-2.9,11.6-2.9c5.4,0,9.2,1,11.6,2.9c2.4,1.9,3.5,4.9,3.5,9
		c0,4.1-1.2,7.1-3.5,9c-2.4,1.9-6.2,2.9-11.6,2.9c-5.4,0-9.2-1-11.6-2.9C869.6,51.3,868.4,48.3,868.4,44.2z M895.8,163.7
		c0,3.7-1,6.1-3.1,7.3c-2,1.1-5.1,1.7-9.2,1.7c-4.1,0-7.1-0.6-9.1-1.7c-2-1.1-3-3.6-3-7.3V73.3c0-3.7,1-6.1,3-7.3
		c2-1.1,5-1.7,9.1-1.7c4.1,0,7.1,0.6,9.2,1.7c2,1.1,3.1,3.6,3.1,7.3V163.7z"/>
	<path class="st2" d="M966.3,172c-36.1,0-54.2-11.1-54.2-33.3V97.1c0-22.2,18.1-33.3,54.2-33.3h95.8c2.9,0,4.9,0.8,5.7,2.4
		c0.9,1.6,1.3,4.1,1.3,7.4c0,3.2-0.4,5.6-1.3,7.2c-0.9,1.6-2.8,2.4-5.7,2.4h-95c-10.7,0-18.5,1.3-23.4,4c-4.9,2.7-7.3,6-7.3,10v41.6
		c0,3.8,2.4,7.1,7.3,9.9c4.9,2.7,12.6,4.1,23.4,4.1h95.6c2.9,0,4.8,0.8,5.7,2.4c0.8,1.6,1.2,4,1.2,7.2c0,3.2-0.4,5.6-1.2,7.3
		c-0.8,1.7-2.7,2.5-5.7,2.5H966.3z"/>
	<path class="st2" d="M1109.2,163.7c0,3.7-1,6.1-3.1,7.3c-2,1.1-5.1,1.7-9.2,1.7c-4.1,0-7.1-0.6-9.1-1.7c-2-1.1-3-3.6-3-7.3V41.3
		c0-3.7,1-6.1,3-7.3c2-1.1,5-1.7,9.1-1.7c4.1,0,7.2,0.6,9.2,1.7c2,1.1,3.1,3.6,3.1,7.3V163.7z"/>
	<path class="st2" d="M1149.8,128.9v9.8c0,3.8,2.4,7.1,7.3,9.9c4.9,2.7,12.6,4.1,23.4,4.1h22c2.9,0,4.8,0.8,5.7,2.4
		c0.8,1.6,1.2,4,1.2,7.2c0,3.2-0.4,5.6-1.2,7.3c-0.8,1.7-2.7,2.5-5.7,2.5h-22.8c-36.1,0-54.2-11.1-54.2-33.3V97.1
		c0-22.2,18.1-33.3,54.2-33.3h44.2c19.2,0,33,2.7,41.5,8.2c8.5,5.5,12.7,13.9,12.7,25.1v22c0,3.7-0.7,6.3-2.1,7.7
		c-1.4,1.4-4.5,2.1-9.4,2.1H1149.8z M1149.8,109.9h104V97.1c0-4.5-2.4-7.9-7.2-10.3c-4.8-2.4-12.6-3.6-23.5-3.6h-42.7
		c-10.7,0-18.5,1.3-23.4,4c-4.9,2.7-7.3,6-7.3,10V109.9z"/>
</g>
<g>
	<path class="st2" d="M572.9,249.8h-21.6l-4.7,10.4h-4.3l17.8-38.8h4l17.8,38.8h-4.3L572.9,249.8z M571.4,246.4l-9.3-20.9l-9.3,20.9
		H571.4z"/>
	<path class="st2" d="M589.9,243.5v-22.2h4.1v22.1c0,9.2,4.3,13.4,11.9,13.4c7.6,0,11.9-4.2,11.9-13.4v-22.1h4v22.2
		c0,11.2-6,16.9-15.9,16.9C596,260.5,589.9,254.7,589.9,243.5z"/>
	<path class="st2" d="M643.7,224.8h-13.6v-3.6h31.4v3.6h-13.6v35.3h-4.1V224.8z"/>
	<path class="st2" d="M666.8,240.7c0-11.3,8.7-19.7,20.4-19.7c11.6,0,20.4,8.4,20.4,19.7s-8.7,19.7-20.4,19.7
		C675.5,260.5,666.8,252,666.8,240.7z M703.5,240.7c0-9.3-6.9-16.1-16.3-16.1c-9.4,0-16.4,6.8-16.4,16.1c0,9.3,7,16.1,16.4,16.1
		C696.5,256.8,703.5,250,703.5,240.7z"/>
	<path class="st2" d="M759.9,221.3v38.8H756v-31.1l-15.3,26.1h-1.9l-15.3-26v30.9h-3.9v-38.8h3.4l16.9,28.8l16.7-28.8H759.9z"/>
	<path class="st2" d="M799.7,249.8H778l-4.7,10.4h-4.3l17.8-38.8h4l17.8,38.8h-4.3L799.7,249.8z M798.2,246.4l-9.3-20.9l-9.3,20.9
		H798.2z"/>
	<path class="st2" d="M823.5,224.8h-13.6v-3.6h31.4v3.6h-13.6v35.3h-4.1V224.8z"/>
	<path class="st2" d="M850.5,221.3h4.1v38.8h-4.1V221.3z"/>
	<path class="st2" d="M866.6,240.7c0-11.3,8.7-19.7,20.4-19.7c11.6,0,20.4,8.4,20.4,19.7s-8.7,19.7-20.4,19.7
		C875.3,260.5,866.6,252,866.6,240.7z M903.3,240.7c0-9.3-6.9-16.1-16.3-16.1c-9.4,0-16.4,6.8-16.4,16.1c0,9.3,7,16.1,16.4,16.1
		C896.4,256.8,903.3,250,903.3,240.7z"/>
	<path class="st2" d="M951.8,221.3v38.8h-3.4l-25-31.5v31.5h-4.1v-38.8h3.4l25,31.5v-31.5H951.8z"/>
	<path class="st2" d="M988.7,224.8v15.3h20.1v3.6h-20.1v16.5h-4.1v-38.8h26.6v3.6H988.7z"/>
	<path class="st2" d="M1018.5,240.7c0-11.3,8.7-19.7,20.4-19.7c11.6,0,20.4,8.4,20.4,19.7s-8.7,19.7-20.4,19.7
		C1027.2,260.5,1018.5,252,1018.5,240.7z M1055.2,240.7c0-9.3-6.9-16.1-16.3-16.1c-9.4,0-16.4,6.8-16.4,16.1c0,9.3,7,16.1,16.4,16.1
		C1048.3,256.8,1055.2,250,1055.2,240.7z"/>
	<path class="st2" d="M1097.8,260.1l-8.9-12.5c-1,0.1-2,0.2-3.1,0.2h-10.4v12.3h-4.1v-38.8h14.5c9.9,0,15.9,5,15.9,13.3
		c0,6.1-3.2,10.4-8.9,12.2l9.5,13.3H1097.8z M1097.6,234.6c0-6.2-4.1-9.8-11.9-9.8h-10.3v19.5h10.3
		C1093.5,244.3,1097.6,240.7,1097.6,234.6z"/>
	<path class="st2" d="M1131.5,221.3h4.1v35.3h21.7v3.6h-25.9V221.3z"/>
	<path class="st2" d="M1194.4,256.6v3.6h-27.5v-38.8h26.6v3.6H1171v13.8h20.1v3.5H1171v14.4H1194.4z"/>
	<path class="st2" d="M1203.1,255.4l1.6-3.2c2.8,2.7,7.7,4.7,12.8,4.7c7.3,0,10.4-3.1,10.4-6.9c0-10.7-23.9-4.1-23.9-18.5
		c0-5.7,4.4-10.7,14.3-10.7c4.4,0,8.9,1.3,12,3.4l-1.4,3.3c-3.3-2.2-7.2-3.2-10.7-3.2c-7.1,0-10.3,3.2-10.3,7
		c0,10.7,23.9,4.2,23.9,18.4c0,5.7-4.5,10.6-14.5,10.6C1211.7,260.5,1206,258.4,1203.1,255.4z"/>
	<path class="st2" d="M1240,255.4l1.6-3.2c2.8,2.7,7.7,4.7,12.8,4.7c7.3,0,10.4-3.1,10.4-6.9c0-10.7-23.9-4.1-23.9-18.5
		c0-5.7,4.4-10.7,14.3-10.7c4.4,0,8.9,1.3,12,3.4l-1.4,3.3c-3.3-2.2-7.2-3.2-10.7-3.2c-7.1,0-10.3,3.2-10.3,7
		c0,10.7,23.9,4.2,23.9,18.4c0,5.7-4.5,10.6-14.5,10.6C1248.6,260.5,1242.9,258.4,1240,255.4z"/>
</g>
</svg>
